<?xml version="1.0" standalone="no"?>
<!DOCTYPE svg PUBLIC "-//W3C//DTD SVG 20010904//EN"
 "http://www.w3.org/TR/2001/REC-SVG-20010904/DTD/svg10.dtd">
<svg version="1.0" xmlns="http://www.w3.org/2000/svg"
 width="539.000000pt" height="463.000000pt" viewBox="0 0 539.000000 463.000000"
 preserveAspectRatio="xMidYMid meet">
<style>
  circle { fill: #FFFFFF; }
  g { fill: #000000; }
  @media (prefers-color-scheme: dark) {
    circle { fill: #1a1a1a; }
    g { fill: #FFFFFF; }
  }
</style>
<circle cx="2695" cy="2315" r="2500"/>
<g transform="translate(0.000000,463.000000) scale(0.100000,-0.100000)"
stroke="none">
<path d="M3104 3845 c-9 -22 -83 -211 -165 -420 -81 -209 -164 -420 -184 -470
-48 -116 -194 -491 -300 -765 -262 -680 -351 -896 -381 -921 -16 -13 1 -52
-160 356 -557 1413 -570 1448 -561 1538 l4 47 -175 0 -175 0 48 -51 c57 -61
93 -136 223 -469 165 -422 619 -1582 699 -1785 127 -324 157 -395 164 -395 4
0 17 26 29 57 12 32 70 182 130 333 60 151 180 457 267 680 l159 405 457 3
c437 2 457 1 466 -17 25 -45 232 -586 247 -643 10 -39 14 -81 10 -110 l-5 -48
175 0 176 0 -40 45 c-52 60 -106 166 -177 350 -32 83 -131 335 -221 560 -215
545 -664 1701 -664 1712 0 5 -6 18 -14 29 -14 18 -16 17 -32 -21z m-5 -455
c33 -88 61 -161 61 -164 0 -3 -10 -6 -22 -8 -21 -3 -23 -9 -24 -64 -2 -79 -19
-136 -119 -389 -45 -115 -127 -322 -180 -460 -54 -137 -102 -256 -108 -262
-14 -19 -256 -18 -263 0 -3 8 63 189 147 403 83 214 186 480 229 590 150 385
202 514 210 514 4 0 35 -72 69 -160z m220 -565 c216 -552 301 -777 296 -784
-7 -12 -852 -14 -859 -3 -3 5 17 67 45 138 28 71 97 248 154 394 173 445 226
563 245 544 5 -5 59 -135 119 -289z m-654 -897 c-54 -141 -288 -745 -352 -911
-39 -98 -74 -178 -79 -179 -12 0 -136 311 -129 323 4 5 16 9 29 9 21 0 22 3
18 54 -6 72 8 117 146 469 l117 297 137 0 137 0 -24 -62z"/>
</g>
</svg>
